<mxfile host="65bd71144e">
    <diagram name="Page-1" id="8ce9d11a-91a2-4d17-14d8-a56ed91bf033">
        <mxGraphModel dx="1096" dy="2515" grid="1" gridSize="10" guides="1" tooltips="1" connect="1" arrows="1" fold="1" page="1" pageScale="1" pageWidth="1100" pageHeight="850" background="none" math="0" shadow="1">
            <root>
                <mxCell id="0"/>
                <mxCell id="1" parent="0"/>
                <mxCell id="60" value="ML Algorithm" style="rounded=1;whiteSpace=wrap;html=1;fontSize=16;verticalAlign=top;horizontal=1;fontFamily=Courier New;strokeColor=#36393d;glass=0;shadow=0;sketch=1;curveFitting=1;jiggle=2;fillColor=#ffcc99;align=center;" vertex="1" parent="1">
                    <mxGeometry x="340" y="-1367" width="560" height="137" as="geometry"/>
                </mxCell>
                <mxCell id="59" value="Preprossecing" style="rounded=1;whiteSpace=wrap;html=1;fontSize=16;verticalAlign=top;horizontal=1;fontFamily=Courier New;strokeColor=#36393d;glass=0;shadow=0;sketch=1;curveFitting=1;jiggle=2;fillColor=#cdeb8b;align=center;" vertex="1" parent="1">
                    <mxGeometry x="320" y="-1526" width="580" height="130" as="geometry"/>
                </mxCell>
                <mxCell id="58" value="Data collection" style="rounded=1;whiteSpace=wrap;html=1;fontSize=15;verticalAlign=top;horizontal=1;fontFamily=Courier New;strokeColor=#36393d;glass=0;shadow=0;sketch=1;curveFitting=1;jiggle=2;fillColor=#cce5ff;" vertex="1" parent="1">
                    <mxGeometry x="111.5" y="-1525" width="200" height="130" as="geometry"/>
                </mxCell>
                <mxCell id="43" style="edgeStyle=none;html=1;exitX=1;exitY=0.5;exitDx=0;exitDy=0;entryX=0;entryY=0.5;entryDx=0;entryDy=0;fontSize=13;" edge="1" parent="1" source="35" target="37">
                    <mxGeometry relative="1" as="geometry"/>
                </mxCell>
                <mxCell id="35" value="Amazon EC2&amp;nbsp;&lt;br&gt;Dataset" style="shape=parallelogram;perimeter=parallelogramPerimeter;whiteSpace=wrap;html=1;rounded=0;shadow=1;labelBackgroundColor=none;strokeWidth=1;fontFamily=Courier New;fontSize=14;align=center;labelBorderColor=none;swimlaneLine=0;fillColor=#f5f5f5;strokeColor=#666666;fontColor=#333333;" vertex="1" parent="1">
                    <mxGeometry x="140" y="-1495" width="143" height="70" as="geometry"/>
                </mxCell>
                <mxCell id="44" style="edgeStyle=none;html=1;exitX=1;exitY=0.5;exitDx=0;exitDy=0;entryX=0;entryY=0.5;entryDx=0;entryDy=0;fontSize=13;" edge="1" parent="1" source="37" target="38">
                    <mxGeometry relative="1" as="geometry"/>
                </mxCell>
                <mxCell id="37" value="Preprossecing&lt;br&gt;steps" style="rounded=1;whiteSpace=wrap;html=1;shadow=1;labelBackgroundColor=none;strokeWidth=1;fontFamily=Courier New;fontSize=14;align=center;shape=label;perimeter=rectanglePerimeter;labelBorderColor=none;swimlaneLine=0;fillColor=#f5f5f5;strokeColor=#666666;fontColor=#333333;" vertex="1" parent="1">
                    <mxGeometry x="350" y="-1490" width="120" height="60" as="geometry"/>
                </mxCell>
                <mxCell id="46" style="edgeStyle=none;html=1;entryX=0;entryY=0.5;entryDx=0;entryDy=0;fontSize=13;" edge="1" parent="1" source="38" target="45">
                    <mxGeometry relative="1" as="geometry"/>
                </mxCell>
                <mxCell id="38" value="Feature selection" style="whiteSpace=wrap;html=1;fontSize=14;fontFamily=Courier New;fillColor=#f5f5f5;strokeColor=#666666;fontColor=#333333;rounded=1;shadow=1;labelBackgroundColor=none;strokeWidth=1;labelBorderColor=none;" vertex="1" parent="1">
                    <mxGeometry x="548" y="-1490" width="120" height="60" as="geometry"/>
                </mxCell>
                <mxCell id="49" value="" style="edgeStyle=none;html=1;fontSize=13;" edge="1" parent="1" source="45" target="48">
                    <mxGeometry relative="1" as="geometry"/>
                </mxCell>
                <mxCell id="45" value="Data Splitting" style="whiteSpace=wrap;html=1;fontSize=14;fontFamily=Courier New;fillColor=#f5f5f5;strokeColor=#666666;fontColor=#333333;rounded=1;shadow=1;labelBackgroundColor=none;strokeWidth=1;labelBorderColor=none;" vertex="1" parent="1">
                    <mxGeometry x="750" y="-1485" width="130" height="55" as="geometry"/>
                </mxCell>
                <mxCell id="51" value="" style="edgeStyle=none;html=1;fontSize=13;" edge="1" parent="1" source="48" target="50">
                    <mxGeometry relative="1" as="geometry"/>
                </mxCell>
                <mxCell id="48" value="Model Training" style="whiteSpace=wrap;html=1;fontSize=14;fontFamily=Courier New;fillColor=#f5f5f5;strokeColor=#666666;fontColor=#333333;rounded=1;shadow=1;labelBackgroundColor=none;strokeWidth=1;labelBorderColor=none;" vertex="1" parent="1">
                    <mxGeometry x="742.5" y="-1334" width="145" height="60" as="geometry"/>
                </mxCell>
                <mxCell id="53" style="edgeStyle=none;html=1;entryX=1;entryY=0.5;entryDx=0;entryDy=0;fontSize=13;" edge="1" parent="1" source="50" target="52">
                    <mxGeometry relative="1" as="geometry"/>
                </mxCell>
                <mxCell id="50" value="Model Evaluation" style="whiteSpace=wrap;html=1;fontSize=14;fontFamily=Courier New;fillColor=#f5f5f5;strokeColor=#666666;fontColor=#333333;rounded=1;shadow=1;labelBackgroundColor=none;strokeWidth=1;labelBorderColor=none;" vertex="1" parent="1">
                    <mxGeometry x="560" y="-1334" width="120" height="60" as="geometry"/>
                </mxCell>
                <mxCell id="55" style="edgeStyle=none;html=1;exitX=0;exitY=0.5;exitDx=0;exitDy=0;entryX=1;entryY=0.5;entryDx=0;entryDy=0;fontSize=13;" edge="1" parent="1" source="52" target="54">
                    <mxGeometry relative="1" as="geometry"/>
                </mxCell>
                <mxCell id="56" style="edgeStyle=orthogonalEdgeStyle;html=1;exitX=0.5;exitY=1;exitDx=0;exitDy=0;entryX=0.5;entryY=1;entryDx=0;entryDy=0;fontSize=13;curved=1;dashed=1;dashPattern=8 8;" edge="1" parent="1" source="52" target="48">
                    <mxGeometry relative="1" as="geometry">
                        <Array as="points">
                            <mxPoint x="420" y="-1244"/>
                            <mxPoint x="815" y="-1244"/>
                        </Array>
                    </mxGeometry>
                </mxCell>
                <mxCell id="52" value="Parameter Tuning" style="whiteSpace=wrap;html=1;fontSize=14;fontFamily=Courier New;fillColor=#f5f5f5;strokeColor=#666666;fontColor=#333333;rounded=1;shadow=1;labelBackgroundColor=none;strokeWidth=1;labelBorderColor=none;" vertex="1" parent="1">
                    <mxGeometry x="360" y="-1334" width="120" height="60" as="geometry"/>
                </mxCell>
                <mxCell id="54" value="Reporting &amp;amp;&lt;br&gt;Analysis" style="whiteSpace=wrap;html=1;fontSize=14;fontFamily=Courier New;fillColor=#f5f5f5;strokeColor=#666666;fontColor=#333333;rounded=1;shadow=1;labelBackgroundColor=none;strokeWidth=1;labelBorderColor=none;" vertex="1" parent="1">
                    <mxGeometry x="180" y="-1334" width="120" height="60" as="geometry"/>
                </mxCell>
            </root>
        </mxGraphModel>
    </diagram>
</mxfile>